<?xml version="1.0" encoding="utf-8"?>
<!-- Generator: Adobe Illustrator 19.0.0, SVG Export Plug-In . SVG Version: 6.00 Build 0)  -->
<svg version="1.1" id="layer" xmlns="http://www.w3.org/2000/svg" xmlns:xlink="http://www.w3.org/1999/xlink" x="0px" y="0px"
	 viewBox="-153 -46 652 652" style="enable-background:new -153 -46 652 652;" xml:space="preserve">
<style type="text/css">
	.st0{fill:#FF0000;}
</style>
<g>
	<path d="M120.7,246.4h-3.9v-6.1h14.1v6.1H127V270h-6.3V246.4z M131.5,270h6.2v-11c0-3.2,1.1-4.8,3.5-4.8h0.1v-7.4
		c-1.9-0.1-2.9,1.2-3.6,3.5v-3.2h-6.1V270z M142.2,263.6c0,4.4,1.9,6.8,4.6,6.8c1.7,0,2.9-0.9,3.8-2.6v2.1h6.1V255
		c0-2.8-0.7-4.9-2.1-6.3c-1.3-1.3-3.2-2-5.7-2c-2,0-3.9,0.4-5.5,1.1v5.7c1.1-0.5,2.8-1.1,4.2-1.1c2,0,3,1.1,3,3.2v0.9
		c-1-0.5-1.9-0.8-3.1-0.8c-3,0-5.3,2.1-5.3,7.2V263.6 M150.6,263.7c0,1.3-0.7,2-1.4,2c-0.8,0-1.3-0.7-1.3-2.5v-0.8
		c0-1.7,0.6-2.6,1.4-2.6c0.4,0,1,0.2,1.4,0.4V263.7 M159.4,270h6.2v-16c0-1.2,0.6-1.9,1.3-1.9c0.8,0,1.3,0.7,1.3,1.9v16h6.2v-17.6
		c0-3.4-1.5-5.7-4.5-5.7c-2.2,0-3.4,1.5-4.3,3.1v-2.6h-6.2V270z M176.6,269.2c1.6,0.8,3.6,1.2,5.3,1.2c3.8,0,6.7-2.7,6.7-6.8v-0.1
		c0-3.4-1.6-5.2-4.2-7.5c-1.6-1.6-2.2-2.1-2.2-2.7v-0.1c0-0.7,0.5-1.1,1.4-1.1c1.2,0,2.6,0.5,4,1.2v-5.9c-1.4-0.5-2.8-0.8-4.4-0.8
		c-4.1,0-6.9,2.5-6.9,6.5v0.1c0,3.5,1.9,5.4,4.3,7.5c1.8,1.6,2.1,2.1,2.1,2.8v0c0,0.8-0.5,1.3-1.4,1.3c-1.2,0-2.9-0.7-4.7-1.7V269.2
		 M190.6,245.3h6.3v-5.4h-6.3V245.3z M190.7,270h6.2v-22.9h-6.2V270z M199.6,270h6.2v-30h-6.2V270z M212.4,270h6.3l4.9-23h-6.1
		l-1.9,13.4l-1.9-13.4h-6.2L212.4,270z M224.4,263.6c0,4.4,1.9,6.8,4.6,6.8c1.7,0,2.9-0.9,3.8-2.6v2.1h6.1V255
		c0-2.8-0.7-4.9-2.1-6.3c-1.3-1.3-3.2-2-5.7-2c-2,0-3.9,0.4-5.5,1.1v5.7c1.1-0.5,2.8-1.1,4.2-1.1c2,0,3,1.1,3,3.2v0.9
		c-1-0.5-1.9-0.8-3.1-0.8c-3,0-5.3,2.1-5.3,7.2V263.6 M232.8,263.7c0,1.3-0.7,2-1.4,2c-0.8,0-1.3-0.7-1.3-2.5v-0.8
		c0-1.7,0.5-2.6,1.4-2.6c0.4,0,1,0.2,1.4,0.4V263.7 M241.6,270h6.2v-16c0-1.2,0.5-1.9,1.3-1.9c0.8,0,1.3,0.7,1.3,1.9v16h6.2v-17.6
		c0-3.4-1.5-5.7-4.5-5.7c-2.2,0-3.4,1.5-4.3,3.1v-2.6h-6.2V270z M259.2,245.3h6.3v-5.4h-6.3V245.3z M259.3,270h6.2v-22.9h-6.2V270z
		 M267.6,263.6c0,4.4,1.9,6.8,4.6,6.8c1.7,0,2.9-0.9,3.8-2.6v2.1h6.1V255c0-2.8-0.7-4.9-2.1-6.3c-1.3-1.3-3.2-2-5.7-2
		c-2,0-3.9,0.4-5.5,1.1v5.7c1.1-0.5,2.7-1.1,4.2-1.1c2,0,3,1.1,3,3.2v0.9c-1-0.5-1.9-0.8-3.1-0.8c-3,0-5.3,2.1-5.3,7.2V263.6
		 M276,263.7c0,1.3-0.7,2-1.4,2c-0.8,0-1.3-0.7-1.3-2.5v-0.8c0-1.7,0.5-2.6,1.4-2.6c0.4,0,1,0.2,1.3,0.4V263.7 M290.7,270h6.4v-29.6
		h-6.4V270z M299.9,270h6.2v-16c0-1.2,0.5-1.9,1.3-1.9c0.8,0,1.3,0.7,1.3,1.9v16h6.2v-17.6c0-3.4-1.5-5.7-4.5-5.7
		c-2.2,0-3.4,1.5-4.3,3.1v-2.6h-6.2V270z M318,265.6c0,3.7,2.3,4.8,5.1,4.8c1.3,0,2.7-0.4,3.6-0.9v-5c-0.5,0.2-0.9,0.3-1.4,0.3
		c-0.8,0-1.2-0.4-1.2-1.2V252h2.6v-4.9h-2.6v-5.6H318v5.6h-1.3v4.9h1.3V265.6 M328.1,259.2c0,7.4,3.5,11.2,8.5,11.2
		c2.3,0,4.2-0.7,5.9-1.8l-0.4-5.5c-1.5,1-3,1.7-4.5,1.7c-1.8,0-3-1-3.3-3.7h8.8v-3.1c0-7.5-2.8-11.5-7.2-11.5c-4.4,0-7.7,4-7.7,11.3
		V259.2 M334.1,256.9c0.1-3.9,0.7-5,1.6-5c1,0,1.5,1.4,1.5,5H334.1z M345.3,270h6.2v-11c0-3.2,1.1-4.8,3.5-4.8h0.1v-7.4
		c-1.9-0.1-2.9,1.2-3.6,3.5v-3.2h-6.1V270z M356.8,270h6.2v-16c0-1.2,0.6-1.9,1.3-1.9c0.8,0,1.3,0.7,1.3,1.9v16h6.2v-17.6
		c0-3.4-1.5-5.7-4.5-5.7c-2.1,0-3.4,1.5-4.3,3.1v-2.6h-6.2V270z M373.8,263.6c0,4.4,1.9,6.8,4.6,6.8c1.7,0,2.9-0.9,3.8-2.6v2.1h6.1
		V255c0-2.8-0.7-4.9-2.1-6.3c-1.3-1.3-3.2-2-5.7-2c-2,0-3.9,0.4-5.6,1.1v5.7c1.1-0.5,2.8-1.1,4.2-1.1c2,0,3,1.1,3,3.2v0.9
		c-1-0.5-1.9-0.8-3.1-0.8c-3.1,0-5.3,2.1-5.3,7.2V263.6 M382.2,263.7c0,1.3-0.7,2-1.4,2c-0.8,0-1.4-0.7-1.4-2.5v-0.8
		c0-1.7,0.5-2.6,1.4-2.6c0.4,0,1,0.2,1.3,0.4V263.7 M391.3,265.6c0,3.7,2.3,4.8,5.1,4.8c1.3,0,2.7-0.4,3.6-0.9v-5
		c-0.5,0.2-0.9,0.3-1.4,0.3c-0.8,0-1.2-0.4-1.2-1.2V252h2.6v-4.9h-2.6v-5.6h-6.2v5.6h-1.3v4.9h1.3V265.6 M402.1,245.3h6.3v-5.4h-6.3
		V245.3z M402.2,270h6.2v-22.9h-6.2V270z M410.6,259.4c0,7.3,3.2,11.1,7.8,11.1c4.6,0,7.8-3.8,7.8-11.1v-1.8
		c0-7.3-3.2-11.1-7.7-11.1c-4.6,0-7.8,3.8-7.8,11.1V259.4 M420.1,259.5c0,4-0.5,5.5-1.6,5.5c-1.1,0-1.6-1.6-1.6-5.5v-1.9
		c0-4,0.5-5.5,1.6-5.5c1.1,0,1.6,1.6,1.6,5.5V259.5 M428.5,270h6.2v-16c0-1.2,0.6-1.9,1.3-1.9c0.8,0,1.3,0.7,1.3,1.9v16h6.2v-17.6
		c0-3.4-1.5-5.7-4.5-5.7c-2.1,0-3.4,1.5-4.3,3.1v-2.6h-6.2V270z M445.5,263.6c0,4.4,2,6.8,4.6,6.8c1.7,0,2.9-0.9,3.8-2.6v2.1h6.1
		V255c0-2.8-0.7-4.9-2.1-6.3c-1.3-1.3-3.2-2-5.7-2c-2,0-3.9,0.4-5.5,1.1v5.7c1.1-0.5,2.8-1.1,4.2-1.1c2,0,3,1.1,3,3.2v0.9
		c-1-0.5-1.9-0.8-3.1-0.8c-3,0-5.3,2.1-5.3,7.2V263.6 M453.9,263.7c0,1.3-0.7,2-1.4,2c-0.8,0-1.4-0.7-1.4-2.5v-0.8
		c0-1.7,0.6-2.6,1.4-2.6c0.4,0,1,0.2,1.3,0.4V263.7 M462.7,270h6.2v-30h-6.2V270z M117.5,312.3h6.4v-11.8h5.2v-5.9h-5.2v-5.8h6v-6
		h-12.3V312.3z M131.8,287.7h6.3v-5.4h-6.3V287.7z M131.8,312.3h6.2v-22.9h-6.2V312.3z M140.8,312.3h6.2v-30h-6.2V312.3z
		 M149.8,312.3h6.1v-15.9c0-1.2,0.5-1.9,1.3-1.9c0.8,0,1.2,0.7,1.2,1.9v15.9h6.1v-15.9c0-1.2,0.6-1.9,1.3-1.9c0.8,0,1.3,0.7,1.3,1.9
		v15.9h6.1v-17.6c0-3.6-1.9-5.8-4.7-5.8c-2.1,0-3.5,1.4-4.4,2.8c-0.7-1.6-1.9-2.8-4-2.8c-2.1,0-3.3,1.3-4.3,3v-2.6h-6.1V312.3z
		 M181.9,312.3h6.3v-11.8h5.3v-5.9h-5.3v-5.8h6v-6h-12.3V312.3z M195.6,301.6c0,7.4,3.6,11.2,8.5,11.2c2.3,0,4.2-0.7,5.9-1.8
		l-0.4-5.5c-1.5,1-3,1.7-4.5,1.7c-1.8,0-3-1-3.3-3.7h8.8v-3.1c0-7.5-2.8-11.5-7.2-11.5c-4.4,0-7.7,4-7.7,11.3V301.6 M201.6,299.3
		c0.1-3.9,0.7-5,1.6-5c1,0,1.5,1.4,1.5,5H201.6z M212.2,311.5c1.6,0.8,3.6,1.3,5.3,1.3c3.8,0,6.7-2.7,6.7-6.8v-0.1
		c0-3.4-1.7-5.3-4.2-7.5c-1.6-1.6-2.2-2.1-2.2-2.7v-0.1c0-0.7,0.5-1.1,1.4-1.1c1.2,0,2.6,0.5,4,1.2v-5.9c-1.4-0.5-2.8-0.8-4.4-0.8
		c-4.1,0-6.9,2.5-6.9,6.5v0.1c0,3.5,1.9,5.4,4.3,7.5c1.8,1.6,2.1,2.1,2.1,2.8v0c0,0.8-0.5,1.3-1.4,1.3c-1.2,0-2.9-0.7-4.7-1.7V311.5
		 M226.6,307.9c0,3.7,2.3,4.8,5.1,4.8c1.3,0,2.7-0.4,3.6-0.9v-4.9c-0.5,0.2-0.9,0.3-1.4,0.3c-0.8,0-1.2-0.4-1.2-1.2v-11.6h2.6v-5
		h-2.6v-5.6h-6.2v5.6h-1.3v5h1.3V307.9 M237.4,287.7h6.3v-5.4h-6.3V287.7z M237.4,312.3h6.2v-22.9h-6.2V312.3z M250.2,312.4h6.3
		l4.9-23h-6.1l-1.9,13.4l-1.9-13.4h-6.2L250.2,312.4z M262.2,305.9c0,4.4,2,6.8,4.6,6.8c1.7,0,2.9-0.9,3.8-2.6v2.1h6.1v-14.9
		c0-2.8-0.7-4.9-2.1-6.3c-1.3-1.3-3.2-2-5.7-2c-2,0-3.9,0.4-5.5,1.1v5.7c1.1-0.5,2.8-1.1,4.2-1.1c2,0,3,1,3,3.2v0.9
		c-1-0.6-1.9-0.9-3.1-0.9c-3,0-5.3,2.1-5.3,7.2V305.9 M270.6,306.1c0,1.4-0.7,2-1.4,2c-0.8,0-1.3-0.7-1.3-2.5v-0.8
		c0-1.7,0.5-2.6,1.4-2.6c0.4,0,1,0.2,1.3,0.4V306.1 M279.4,312.3h6.2v-30h-6.2V312.3z"/>
	<path class="st0" d="M-92.9,311.7l33-33v33H-92.9z M-59.8,240.4v17.8l17.8-17.8H-59.8z M-77.7,258.2v-17.8h-17.8v17.8h-17.8v-17.8
		h-17.8v17.8h17.8v53.5l53.5-53.5h0H-77.7z"/>
	<path d="M-15.5,254.9h-9.4v-14.6h34v14.6h-9.4v56.7h-15.3V254.9z M12.8,311.6h15.3v-71.3H12.8V311.6z M34.2,311.6h15.3v-28.5h12.6
		v-14.3H49.5v-14.1h14.4v-14.5H34.2V311.6z M67.6,311.6h15.3v-28.5h12.6v-14.3H82.9v-14.1h14.4v-14.5H67.6V311.6z"/>
</g>
</svg>
